# xmcd
#
# Track frame offsets:
#	150
#	13565
#	29050
#	48600
#	63582
#	78487
#	97992
#	114020
#	128510
#	143537
#
# Disc length: 2206 seconds
#
# Revision: 0
# Processed by: cddbd v1.5.1PL0 Copyright (c) Steve Scherf et al.
# Submitted via: dBpowerAMP V4.0
#
DISCID=79089c0a
DTITLE=George Strait - Blue Clear Sky
DYEAR=1996
DGENRE=Country
TTITLE0=Blue Clear Sky
TTITLE1=Carried Away
TTITLE2=Rockin' In The Arms Of Your Memory
TTITLE3=She Knows When You're On My Mind
TTITLE4=I Ain't Never Seen No One Like You
TTITLE5=I Can Still Make Cheyenne
TTITLE6=King Of The Mountain
TTITLE7=Do The Right Thing
TTITLE8=I'd Just As Soon Go
TTITLE9=Need I Say More
EXTD=
EXTT0=
EXTT1=
EXTT2=
EXTT3=
EXTT4=
EXTT5=
EXTT6=
EXTT7=
EXTT8=
EXTT9=
PLAYORDER=
